<svg xmlns="http://www.w3.org/2000/svg" viewBox="0 0 200 60" fill="none">
  <g fill="#1a1a2e">
    <path d="M20,12 C8,12 8,48 20,48 L32,48 C44,48 44,12 32,12 Z M20,20 L32,20 C38,20 38,40 32,40 L20,40 C14,40 14,20 20,20 Z"/>
    <path d="M50,12 L50,48 L58,48 L58,36 L68,36 C78,36 78,12 68,12 Z M58,20 L68,20 C72,20 72,28 68,28 L58,28 Z"/>
    <path d="M84,12 L84,48 L92,48 L92,36 L102,36 C112,36 112,12 102,12 Z M92,20 L102,20 C106,20 106,28 102,28 L92,28 Z"/>
    <path d="M118,12 C106,12 106,48 118,48 L130,48 C142,48 142,12 130,12 Z M118,20 L130,20 C136,20 136,40 130,40 L118,40 C112,40 112,20 118,20 Z"/>
  </g>
</svg>
