<svg xmlns="http://www.w3.org/2000/svg" viewBox="0 0 240 60" fill="none">
  <g fill="#1a1a2e">
    <path d="M8,16 L8,22 L20,22 L20,46 L28,46 L28,22 L40,22 L40,16 Z"/>
    <path d="M44,26 L44,46 L52,46 L52,34 C52,30 56,28 60,28 L60,22 C56,22 52,24 52,24 L52,26 Z"/>
    <path d="M74,22 C64,22 62,32 62,34 C62,42 68,46 74,46 L80,46 C84,46 86,44 88,42 L88,46 L96,46 L96,26 L88,26 L88,28 C86,24 82,22 78,22 Z M76,28 L78,28 C84,28 88,32 88,36 C88,40 84,42 78,42 L76,42 C70,42 70,28 76,28 Z"/>
    <path d="M100,26 L100,46 L108,46 L108,34 C108,30 112,28 116,28 L116,46 L124,46 L124,26 C124,22 118,22 114,22 C110,22 108,24 108,26 Z"/>
    <path d="M128,38 C128,38 130,42 134,44 C138,46 142,46 142,46 C146,46 150,44 150,40 C150,36 146,34 140,32 C136,30 134,30 134,28 C134,26 136,26 138,26 C140,26 142,28 142,28 L148,24 C148,24 144,22 140,22 C136,22 128,22 128,28 C128,34 134,34 138,36 C142,38 144,38 144,40 C144,42 142,42 140,42 C136,42 134,38 134,38 Z"/>
    <path d="M152,38 C152,38 154,42 158,44 C162,46 166,46 166,46 C170,46 174,44 174,40 C174,36 170,34 164,32 C160,30 158,30 158,28 C158,26 160,26 162,26 C164,26 166,28 166,28 L172,24 C172,24 168,22 164,22 C160,22 152,22 152,28 C152,34 158,34 162,36 C166,38 168,38 168,40 C168,42 166,42 164,42 C160,42 158,38 158,38 Z"/>
    <rect x="178" y="16" width="8" height="4" rx="2"/>
    <rect x="178" y="26" width="8" height="20"/>
    <path d="M198,22 C192,22 190,28 190,34 C190,40 192,46 198,46 L204,46 C210,46 212,40 212,34 C212,28 210,22 204,22 Z M200,28 L202,28 C208,28 208,42 202,42 L200,42 C194,42 194,28 200,28 Z"/>
    <path d="M216,26 L216,46 L224,46 L224,34 C224,30 228,28 232,28 L232,46 L240,46 L240,26 C240,22 234,22 230,22 C226,22 224,24 224,26 Z"/>
  </g>
</svg>
